<?xml version="1.0" encoding="UTF-8"?>
<svg id="Capa_1" data-name="Capa 1" xmlns="http://www.w3.org/2000/svg" version="1.1" viewBox="0 0 1080 1080">
  <defs>
    <style>
      .cls-1 {
        fill: #e00817;
      }

      .cls-1, .cls-2, .cls-3, .cls-4 {
        stroke-width: 0px;
      }

      .cls-2 {
        fill: #000;
      }

      .cls-3 {
        fill: #fdfdfd;
      }

      .cls-4 {
        fill: #fcef00;
      }
    </style>
  </defs>
  <circle class="cls-3" cx="540" cy="543.5" r="319.5"/>
  <path class="cls-4" d="M493.6,915.1c-185.8-22.8-329.6-181.2-329.6-373.2S314.9,184,507.2,167.4c-9.7,19.4-21.2,42.7-33.3,67.1-141.9,30.4-248.4,156.5-248.4,307.5s116.4,288.6,268,311.1c0,19.2,0,38.3,0,57.5.2,1.8.2,3.4,0,4.7ZM573.4,167.4c9.7,19.5,21.3,42.7,33.5,67.2,141.5,30.7,247.5,156.6,247.5,307.3s-115.2,287.2-265.7,310.7c0,19.8.2,39.6.3,59.4-.2,1-.3,1.9-.4,2.7,184.6-23.9,327.3-181.7,327.3-372.9s-150.6-357.6-342.6-374.5Z"/>
  <path class="cls-1" d="M610.1,408.3c3.5-20.6,3.8-21,24.6-21,13.9,0,15.5-2.6,9.5-15.2-32.4-68.4-64.8-136.7-97.4-205-1.9-4-3.8-9.5-7.1-10.4-3.8-1.1-8,7.5-9.4,10.5-18.5,40.2-50.7,110.3-75.9,165.5-7,15.3-14.1,30.6-21,46.1-3.1,7-1.5,9.6,6.1,10.2,5.5.4,11,.3,16.6.3,6.3,0,9.9,3,11.2,9.2,7.9,38.6,15.8,77.2,23.8,115.8,3.4,16.3,4.1,17,20.8,18.4,11.6,1,13-.5,13.2-12.3.5-27,1.1-53.9,1.8-80.9.3-10.2,3.9-15.6,11.1-17,12.9-2.6,20.8,4.2,21.1,18.4.3,14,0,28.1,0,42.1,0,11.2,0,22.4,0,33.6q0,18.2,18.1,18.6c8.4.2,11.8-2.4,13.2-10.8,6.6-38.7,13.1-77.4,19.7-116.1ZM523.6,249.8l12.7-29.3c1.8-4.1,7.7-4.1,9.5,0l12.7,29.3c1.5,3.4-1,7.2-4.7,7.2h-25.4c-3.7,0-6.2-3.8-4.7-7.2ZM583.9,326.2c-2.2,6.2-4.2,12.7-7.6,18.2-2,3.2-6.4,6.3-10,6.8-7.6,1-15.4.3-23.1.3,0-.2-18-.3-26.9-.8-4.9-.3-8.2-2.2-10.5-5,0,0-.1-.1-.1-.2-.2-.3-.5-.6-.7-1,0,0,0,0,0-.1,0,0,0,0,0,0-.4-.6-.8-1.2-1.1-1.9-2.8-5.1-4.5-10.8-6.5-16.3-.6-1.6-.3-4.4.8-5.4,1.1-1,3.9-1.1,5.5-.5,2.7,1,5.2,2.3,7.8,3.6,13.6,5.9,14,5.5,20.5-8.8,1.2-3,2.5-5.9,3.9-8.8.8-1.5,3-3.1,4.6-3.1,0,0,.1,0,.2,0,0,0,.1,0,.2,0,1.6,0,3.8,1.6,4.6,3.1,1.5,2.9,2.7,5.8,3.9,8.8,6.5,14.3,7,14.7,20.5,8.8,2.6-1.3,5.1-2.6,7.8-3.6,1.6-.6,4.4-.5,5.5.5,1.1,1,1.4,3.8.8,5.4Z"/>
  <path class="cls-2" d="M780,703.6c-17-21.3-33.9-42.7-51.1-64-1.5-1.8-4.5-2.5-6.8-3.7-.9,2.5-2.3,4.9-2.5,7.5-.2,4.2.4,8.5.6,12.7.4,6.2-2.5,9-8.7,9-19.3,0-38.5,0-57.8,0-17.5,0-35,0-52.6,0-9.3,0-11.4-2.5-9.3-11.5,15.4-67.4,47.2-206.5,47.6-208.6,2.3-10.5,5.9-13.3,16.7-13.2,10.6,0,21.1,0,31.7,0,13.6-.1,15.4-3.2,9.3-15.5-21.8-44-142.2-286-150.2-301.5-1.3-2.6-4.3-5.9-6.6-5.9-2.3,0-5.4,3.2-6.7,5.8-10.5,19.2-126.5,255-150,302.4-6.2,12.5-5,14.6,9,14.7,10.9,0,21.8,0,32.7,0,10.3,0,14.7,3.3,17.1,13.2,7.3,30.6,40.7,169.3,50.1,208,2.3,9.5.4,12.1-9.4,12.2-36.9,0-73.9,0-110.8,0-8.7,0-11.7-3.4-10.9-12,.3-3.3.7-6.6.5-9.9-.1-1.9-1.3-3.8-1.9-5.7-2,.9-4.6,1.3-5.9,2.8-9.5,11.2-43.8,52.8-51.8,62.1-4.5,5.2-4.8,10.3-.5,15.8,17,21.9,33.9,43.9,51.1,65.8,1.2,1.5,3.8,1.8,5.7,2.7.6-1.9,1.7-3.8,1.8-5.7,0-4.7-.6-9.4-.6-14.2,0-7.8,2.4-10.1,10.3-10.1,35,0,113.3-.7,116.9.4,3,.9,7.5-.9,7.5,6.5.2,28.1-.4,56.1-.7,84.2,0,20.9,0,41.7,0,62.6.7,8.1-1.1,10.4-9.3,11.4-1.9.2-3.8.2-5.6.8-1.7.6-4.6,1.7-4.6,2.8-.1,1.7,1.1,4.2,2.6,5.3,17.4,12.5,39,24.9,56.5,37.3,4.9,3.5,10.2,4.6,15.5,1.4,20.2-12.2,36.1-24.5,56.1-37,1.4-.9,2.7-3.9,2.2-5.4-.4-1.5-2.9-2.8-4.8-3.5-1.7-.6-3.7-.2-5.6-.4-7.1-.8-9-3.5-7.6-10.9-.1-21.4-.2-42.8-.3-64.2-.4-27.6-.8-55.2-1.2-82.8,0-6.7,3.8-9.2,10-9.1,30.7.5,61.5,1,92.2,1.5,6.3.1,12.6.2,18.9.4,7.9.2,10.6,2.9,11.3,10.8.3,3.5.3,7,1.2,10.3.4,1.6,2.4,3.4,4,4,1,.4,3.2-1,4.2-2.2,16.9-20.6,33.8-41.3,50.7-61.9,4.3-5.2,4.1-10.2,0-15.3ZM577.2,535.1q-18.1-.4-18.1-18.6c0-11.2,0-22.4,0-33.6,0-14,.2-28.1,0-42.1-.3-14.2-8.2-21-21.1-18.4-7.1,1.4-10.8,6.8-11.1,17-.7,27-1.3,53.9-1.8,80.9-.2,11.8-1.6,13.2-13.2,12.3-16.7-1.4-17.5-2-20.8-18.4-8-38.6-15.9-77.2-23.8-115.8-1.3-6.2-4.9-9.2-11.2-9.2-5.5,0-11.1.1-16.6-.3-7.6-.6-9.2-3.2-6.1-10.2,6.9-15.4,14-30.7,21-46.1,25.3-55.2,57.4-125.3,75.9-165.5,1.4-3,5.6-11.6,9.4-10.5,3.3.9,5.2,6.4,7.1,10.4,32.6,68.3,65,136.7,97.4,205,6,12.6,4.3,15.2-9.5,15.2-20.8,0-21.2.3-24.6,21-6.5,38.7-13.1,77.4-19.7,116.1-1.4,8.4-4.8,11-13.2,10.8Z"/>
  <path class="cls-3" d="M583.1,320.8c-1.1-1-3.9-1.1-5.5-.5-2.7,1-5.2,2.3-7.8,3.6-13.6,5.9-14,5.5-20.5-8.8-1.2-3-2.5-5.9-3.9-8.8-.8-1.5-3-3.1-4.6-3.1,0,0-.1,0-.2,0,0,0-.1,0-.2,0-1.6,0-3.8,1.6-4.6,3.1-1.5,2.9-2.7,5.8-3.9,8.8-6.5,14.3-7,14.7-20.5,8.8-2.6-1.3-5.1-2.6-7.8-3.6-1.6-.6-4.4-.5-5.5.5-1.1,1-1.4,3.8-.8,5.4,1.9,5.5,3.7,11.2,6.5,16.3.3.7.7,1.3,1.1,1.9,0,0,0,0,0,0,0,0,0,0,0,.1.2.3.4.6.7,1,0,0,0,.1.1.2,2.3,2.9,5.6,4.7,10.5,5,8.9.5,26.9.6,26.9.8,7.7,0,15.5.7,23.1-.3,3.7-.5,8-3.6,10-6.8,3.4-5.5,5.4-12,7.6-18.2.6-1.6.3-4.4-.8-5.4Z"/>
  <path class="cls-2" d="M523.6,249.8l12.7-29.3c1.8-4.1,7.7-4.1,9.5,0l12.7,29.3c1.5,3.4-1,7.2-4.7,7.2h-25.4c-3.7,0-6.2-3.8-4.7-7.2Z"/>
</svg>